<svg width="17" height="16" viewBox="0 0 17 16" fill="none" xmlns="http://www.w3.org/2000/svg">
<path d="M10.6718 1.3335H4.67183C4.31821 1.3335 3.97907 1.47397 3.72903 1.72402C3.47898 1.97407 3.3385 2.31321 3.3385 2.66683V13.3335C3.3385 13.6871 3.47898 14.0263 3.72903 14.2763C3.97907 14.5264 4.31821 14.6668 4.67183 14.6668H12.6718C13.0255 14.6668 13.3646 14.5264 13.6146 14.2763C13.8647 14.0263 14.0052 13.6871 14.0052 13.3335V4.66683L10.6718 1.3335Z" stroke="#1A1A1A" stroke-width="1.33333" stroke-linecap="round" stroke-linejoin="round"/>
<path d="M10.0052 1.3335V4.00016C10.0052 4.35378 10.1457 4.69292 10.3958 4.94297C10.6458 5.19302 10.985 5.3335 11.3386 5.3335H14.0052" stroke="#1A1A1A" stroke-width="1.33333" stroke-linecap="round" stroke-linejoin="round"/>
<path d="M6.00525 8.6665H7.33858" stroke="#1A1A1A" stroke-width="1.33333" stroke-linecap="round" stroke-linejoin="round"/>
<path d="M10.0052 8.6665H11.3386" stroke="#1A1A1A" stroke-width="1.33333" stroke-linecap="round" stroke-linejoin="round"/>
<path d="M6.00525 11.3335H7.33858" stroke="#1A1A1A" stroke-width="1.33333" stroke-linecap="round" stroke-linejoin="round"/>
<path d="M10.0052 11.3335H11.3386" stroke="#1A1A1A" stroke-width="1.33333" stroke-linecap="round" stroke-linejoin="round"/>
</svg>
