<svg width="17" height="16" viewBox="0 0 17 16" fill="none" xmlns="http://www.w3.org/2000/svg">
<path d="M3.34894 3.33324C3.34887 3.09863 3.4107 2.86816 3.52819 2.6651C3.64569 2.46204 3.81468 2.29357 4.01811 2.1767C4.22153 2.05984 4.45219 1.99872 4.6868 1.99952C4.9214 2.00032 5.15164 2.063 5.35427 2.18124L13.3523 6.84657C13.5541 6.96369 13.7217 7.13174 13.8382 7.33391C13.9548 7.53608 14.0162 7.7653 14.0164 7.99867C14.0166 8.23203 13.9556 8.46135 13.8394 8.66373C13.7232 8.8661 13.5559 9.03444 13.3543 9.15191L5.35427 13.8186C5.15164 13.9368 4.9214 13.9995 4.6868 14.0003C4.45219 14.0011 4.22153 13.94 4.01811 13.8231C3.81468 13.7062 3.64569 13.5378 3.52819 13.3347C3.4107 13.1316 3.34887 12.9012 3.34894 12.6666V3.33324Z" stroke="white" stroke-width="1.33333" stroke-linecap="round" stroke-linejoin="round"/>
</svg>
