<svg width="17" height="16" viewBox="0 0 17 16" fill="none" xmlns="http://www.w3.org/2000/svg">
<path d="M10.8593 1.3335H4.85933C4.50571 1.3335 4.16657 1.47397 3.91653 1.72402C3.66648 1.97407 3.526 2.31321 3.526 2.66683V13.3335C3.526 13.6871 3.66648 14.0263 3.91653 14.2763C4.16657 14.5264 4.50571 14.6668 4.85933 14.6668H12.8593C13.213 14.6668 13.5521 14.5264 13.8021 14.2763C14.0522 14.0263 14.1927 13.6871 14.1927 13.3335V4.66683L10.8593 1.3335Z" stroke="#1A1A1A" stroke-width="1.33333" stroke-linecap="round" stroke-linejoin="round"/>
<path d="M10.1927 1.3335V4.00016C10.1927 4.35378 10.3332 4.69292 10.5833 4.94297C10.8333 5.19302 11.1725 5.3335 11.5261 5.3335H14.1927" stroke="#1A1A1A" stroke-width="1.33333" stroke-linecap="round" stroke-linejoin="round"/>
<path d="M7.52608 6H6.19275" stroke="#1A1A1A" stroke-width="1.33333" stroke-linecap="round" stroke-linejoin="round"/>
<path d="M11.5261 8.6665H6.19275" stroke="#1A1A1A" stroke-width="1.33333" stroke-linecap="round" stroke-linejoin="round"/>
<path d="M11.5261 11.3335H6.19275" stroke="#1A1A1A" stroke-width="1.33333" stroke-linecap="round" stroke-linejoin="round"/>
</svg>
